<?xml version="1.0" standalone="no"?>
<!DOCTYPE svg PUBLIC "-//W3C//DTD SVG 1.1//EN" "http://www.w3.org/Graphics/SVG/1.1/DTD/svg11.dtd" >
<svg xmlns="http://www.w3.org/2000/svg">
<metadata>Generated by IcoMoon</metadata>
<defs>
<font id="icocustom" horiz-adv-x="1024">
<font-face units-per-em="1024" ascent="960" descent="-64" />
<missing-glyph horiz-adv-x="1024" />
<glyph unicode="&#x20;" horiz-adv-x="512" d="" />
<glyph unicode="&#xe900;" glyph-name="met_deadlines" d="M982.4 646.4c-54.4 128-144 217.6-272 272-64 28.8-131.2 41.6-198.4 41.6-70.4 0-134.4-12.8-198.4-41.6-128-54.4-220.8-144-272-272-25.6-64-41.6-128-41.6-198.4s12.8-137.6 41.6-198.4c54.4-124.8 147.2-217.6 272-272 64-25.6 128-41.6 198.4-41.6s134.4 12.8 198.4 41.6c128 54.4 217.6 147.2 272 272 25.6 64 41.6 131.2 41.6 198.4 0 70.4-12.8 137.6-41.6 198.4zM902.4 220.8c-41.6-70.4-96-124.8-163.2-163.2-70.4-41.6-144-60.8-227.2-60.8-60.8 0-118.4 12.8-176 35.2-54.4 25.6-102.4 54.4-144 96s-70.4 89.6-96 144c-22.4 54.4-35.2 115.2-35.2 176 0 80 19.2 156.8 60.8 224 41.6 70.4 96 124.8 163.2 163.2 70.4 41.6 144 60.8 224 60.8s156.8-19.2 227.2-60.8c70.4-41.6 124.8-96 163.2-163.2 41.6-70.4 60.8-144 60.8-224 3.2-80-19.2-156.8-57.6-227.2zM544 454.4v288c0 16-16 32-32 32s-32-12.8-32-32v-294.4c0 0 0-3.2 0-3.2 0-9.6 3.2-19.2 9.6-25.6l166.4-166.4c12.8-12.8 32-12.8 41.6 0 12.8 12.8 12.8 32 0 44.8l-153.6 156.8z" />
<glyph unicode="&#xe901;" glyph-name="dedicated_project_manager" d="M515.2 441.6c-256 0-464-211.2-464-470.4 0-19.2 16-35.2 32-35.2h857.6c19.2 0 32 16 32 35.2 6.4 259.2-201.6 470.4-457.6 470.4zM115.2-6.4c16 179.2 160 355.2 329.6 393.6l41.6-64-25.6-188.8c0-6.4 0-16 6.4-22.4l41.6-60.8c3.2-3.2 3.2-3.2 6.4-3.2s3.2 3.2 6.4 6.4l41.6 60.8c3.2 6.4 6.4 12.8 6.4 22.4l-25.6 185.6 38.4 60.8c169.6-38.4 316.8-214.4 329.6-390.4 3.2 0-796.8 0-796.8 0zM515.2 960c-131.2 0-236.8-108.8-236.8-240s105.6-240 236.8-240 236.8 108.8 236.8 240-105.6 240-236.8 240zM515.2 540.8c-96 0-179.2 83.2-179.2 179.2s83.2 179.2 179.2 179.2 182.4-83.2 182.4-179.2-86.4-179.2-182.4-179.2z" />
<glyph unicode="&#xe902;" glyph-name="experience_professionals" d="M998.4 633.6l-476.8 192c-6.4 3.2-16 3.2-22.4 0l-476.8-192c-12.8-6.4-22.4-22.4-22.4-41.6s9.6-35.2 25.6-41.6l185.6-73.6v-227.2c0-9.6 3.2-22.4 9.6-28.8 76.8-99.2 182.4-153.6 294.4-153.6s214.4 51.2 291.2 147.2c6.4 9.6 9.6 19.2 9.6 28.8v230.4l76.8 32v-108.8c-9.6-6.4-12.8-19.2-12.8-35.2v-105.6c0-22.4 16-44.8 35.2-44.8s32 19.2 32 44.8v105.6c0 28.8-19.2 35.2-19.2 35.2v115.2l70.4 38.4c16 6.4 25.6 22.4 25.6 41.6s-9.6 35.2-25.6 41.6zM736 217.6c-60.8-70.4-137.6-92.8-224-92.8s-182.4 51.2-243.2 124.8v211.2l233.6-96c3.2 0 6.4-3.2 12.8-3.2 3.2 0 9.6 0 12.8 3.2l233.6 96v-211.2l-25.6-32zM512 422.4l-432 176 432 172.8 432-172.8-432-176z" />
<glyph unicode="&#xe903;" glyph-name="fast_and_easy_start" d="M892.8 281.6c-12.8 12.8-32 12.8-41.6 0l-128-128-48 48c-12.8 12.8-32 12.8-41.6 0-12.8-12.8-12.8-25.6 0-35.2l67.2-67.2c6.4-6.4 12.8-9.6 22.4-9.6s16 3.2 22.4 9.6l150.4 150.4c9.6 9.6 9.6 22.4-3.2 32zM272 960c-150.4 0-272-121.6-272-272s121.6-268.8 272-268.8 268.8 121.6 268.8 268.8c0 150.4-118.4 272-268.8 272zM272 473.6c-121.6 0-214.4 96-214.4 217.6s99.2 214.4 214.4 214.4 217.6-99.2 217.6-214.4-99.2-217.6-217.6-217.6zM752 476.8c-150.4 0-268.8-121.6-268.8-268.8 0-150.4 121.6-272 268.8-272 150.4 0 272 121.6 272 272s-121.6 268.8-272 268.8zM752-6.4c-118.4 0-217.6 99.2-217.6 217.6s96 217.6 217.6 217.6 217.6-96 217.6-217.6-96-217.6-217.6-217.6zM345.6 649.6l-51.2 51.2v105.6c0 16-12.8 28.8-28.8 28.8-16 3.2-22.4-9.6-22.4-25.6v-118.4c0-6.4 3.2-16 9.6-22.4l57.6-60.8c12.8-12.8 25.6-12.8 35.2 0s12.8 28.8 0 41.6zM412.8 57.6h-211.2c-16 0-28.8 12.8-28.8 28.8v169.6l9.6-9.6c12.8-12.8 32-12.8 41.6 0s12.8 32 0 41.6l-60.8 60.8c-12.8 12.8-22.4 12.8-32 0l-60.8-60.8c-12.8-12.8-12.8-32 0-41.6 12.8-12.8 32-12.8 41.6 0l9.6 9.6v-166.4c0-51.2 41.6-89.6 89.6-89.6h211.2c16 0 19.2 12.8 19.2 28.8s-12.8 28.8-28.8 28.8zM953.6 649.6c-12.8 12.8-32 12.8-41.6 0l-9.6-9.6v166.4c0 51.2-41.6 89.6-89.6 89.6h-211.2c-16 0-22.4-12.8-22.4-28.8s12.8-28.8 28.8-28.8h211.2c16 0 28.8-12.8 28.8-28.8v-169.6l-9.6 9.6c-12.8 12.8-32 12.8-41.6 0s-12.8-32 0-41.6l60.8-60.8c12.8-12.8 25.6-12.8 35.2 0l60.8 60.8c12.8 9.6 12.8 28.8 0 41.6z" />
<glyph unicode="&#xe904;" glyph-name="first_rate_product_quality" d="M240 406.4c67.2-112 192-176 240-198.4v-80c-105.6-9.6-185.6-76.8-185.6-160v-32h432v32c0 83.2-80 147.2-185.6 160v76.8c51.2 22.4 176 86.4 240 198.4 224 118.4 211.2 422.4 211.2 435.2v32h-166.4v89.6h-627.2v-89.6h-169.6v-32c0-12.8-12.8-316.8 211.2-432zM665.6-9.6h-304c22.4 38.4 86.4 80 153.6 80 60.8 0 128-41.6 150.4-80zM934.4 816c-3.2-64-6.4-217.6-112-304 3.2 12.8 3.2 28.8 3.2 41.6v262.4h108.8zM256 908.8h512v-352c0-176-204.8-278.4-256-300.8-51.2 22.4-256 124.8-256 300.8v352zM198.4 816v-259.2c0-16 0-28.8 3.2-41.6-105.6 86.4-108.8 236.8-112 300.8h108.8z" />
<glyph unicode="&#xe905;" glyph-name="fully_namaged_by_you" d="M876.8 646.4l140.8 140.8c9.6 9.6 9.6 19.2 6.4 32-3.2 9.6-16 16-25.6 19.2h-96v96c0 12.8-6.4 22.4-19.2 25.6-9.6 3.2-22.4 3.2-32-6.4l-140.8-140.8c-3.2-3.2-6.4-9.6-6.4-12.8l-3.2-9.6c-70.4 41.6-153.6 67.2-240 67.2-252.8 0-460.8-208-460.8-460.8s208-460.8 460.8-460.8 460.8 208 460.8 460.8c0 89.6-25.6 169.6-67.2 240l9.6 3.2c3.2 0 9.6 3.2 12.8 6.4zM864 396.8c0-224-182.4-403.2-403.2-403.2s-403.2 179.2-403.2 403.2 179.2 403.2 403.2 403.2c83.2 0 160-25.6 227.2-70.4l-25.6-89.6-19.2-19.2c-51.2 41.6-115.2 67.2-185.6 67.2-160 0-291.2-131.2-291.2-291.2s131.2-291.2 291.2-291.2 291.2 131.2 291.2 291.2c0 70.4-25.6 134.4-67.2 185.6l19.2 19.2 92.8 22.4c44.8-67.2 70.4-144 70.4-227.2zM428.8 364.8c6.4-6.4 12.8-9.6 19.2-9.6s16 3.2 19.2 9.6l64 64c6.4-9.6 6.4-22.4 6.4-35.2 0-44.8-38.4-83.2-83.2-83.2s-83.2 38.4-83.2 83.2c0 44.8 38.4 83.2 83.2 83.2 12.8 0 25.6-3.2 35.2-6.4l-64-64c-6.4-12.8-6.4-28.8 3.2-41.6zM537.6 512c-22.4 16-48 22.4-76.8 22.4-76.8 0-140.8-64-140.8-140.8s64-140.8 140.8-140.8 140.8 64 140.8 140.8c0 28.8-9.6 54.4-22.4 76.8l67.2 67.2c32-38.4 51.2-89.6 51.2-144 0-128-105.6-233.6-233.6-233.6s-233.6 105.6-233.6 233.6 105.6 233.6 233.6 233.6c54.4 0 105.6-19.2 144-51.2l-70.4-64zM841.6 691.2l-115.2-28.8 28.8 115.2 89.6 86.4v-57.6c0-16 12.8-28.8 28.8-28.8h57.6l-89.6-86.4z" />
<glyph unicode="&#xe906;" glyph-name="increase_end_user_loyalty" d="M979.2 432c-9.6 12.8-9.6 28.8 0 38.4l19.2 25.6c12.8 19.2 19.2 44.8 12.8 70.4-6.4 22.4-22.4 44.8-41.6 54.4l-28.8 16c-12.8 6.4-19.2 19.2-19.2 35.2l6.4 32c3.2 25.6-3.2 48-19.2 67.2s-38.4 32-64 32h-32c-16 0-28.8 9.6-32 25.6l-9.6 28.8c-9.6 35.2-44.8 60.8-83.2 60.8-12.8 0-22.4-3.2-35.2-6.4l-28.8-12.8c-12.8-6.4-28.8-3.2-38.4 9.6l-19.2 22.4c-16 19.2-38.4 28.8-64 28.8s-48-9.6-64-28.8l-19.2-22.4c-3.2-12.8-19.2-16-35.2-9.6l-28.8 12.8c-9.6 3.2-22.4 6.4-32 6.4-38.4 0-73.6-25.6-83.2-64l-6.4-32c-3.2-12.8-16-22.4-32-22.4l-32-3.2c-25.6 0-48-12.8-60.8-32s-19.2-44.8-16-70.4l6.4-28.8c3.2-16-3.2-28.8-16-35.2l-25.6-16c-22.4-12.8-35.2-32-41.6-57.6-6.4-22.4 0-48 16-67.2l19.2-25.6c9.6-12.8 9.6-28.8 0-38.4l-19.2-25.6c-12.8-19.2-19.2-44.8-12.8-70.4 6.4-22.4 22.4-44.8 41.6-54.4l28.8-16c6.4-6.4 16-19.2 12.8-35.2l-6.4-32c-3.2-25.6 3.2-48 19.2-67.2s38.4-32 64-32h32c16 0 28.8-9.6 32-25.6l9.6-28.8c9.6-35.2 44.8-60.8 83.2-60.8v0c12.8 0 22.4 3.2 35.2 6.4l28.8 12.8c12.8 6.4 28.8 3.2 38.4-9.6l19.2-22.4c16-19.2 38.4-28.8 64-28.8s48 9.6 64 28.8l19.2 22.4c9.6 9.6 25.6 16 38.4 9.6l28.8-12.8c9.6-3.2 22.4-6.4 32-6.4 38.4 0 73.6 25.6 83.2 64l9.6 28.8c3.2 12.8 16 25.6 32 25.6l32 3.2c25.6 0 48 12.8 60.8 32 16 19.2 22.4 44.8 16 67.2l-6.4 28.8c-3.2 16 3.2 28.8 16 35.2l25.6 16c22.4 12.8 35.2 32 41.6 57.6s0 48-16 67.2l-19.2 28.8zM947.2 352c-3.2-9.6-6.4-16-16-22.4l-25.6-16c-32-16-48-51.2-41.6-86.4l6.4-28.8c3.2-9.6 0-19.2-6.4-25.6s-16-12.8-25.6-12.8l-28.8-3.2c-35.2-3.2-67.2-25.6-76.8-60.8l-6.4-28.8c-3.2-16-16-25.6-32-25.6-3.2 0-9.6 0-12.8 3.2l-28.8 12.8c-9.6 3.2-19.2 6.4-32 6.4-25.6 0-48-9.6-64-28.8l-19.2-22.4c-6.4-6.4-16-12.8-25.6-12.8s-19.2 3.2-25.6 9.6l-19.2 22.4c-16 16-38.4 28.8-60.8 28.8-12.8 0-22.4-3.2-32-6.4l-28.8-12.8c-3.2-3.2-9.6-3.2-12.8-3.2-16 0-28.8 9.6-32 22.4l-9.6 28.8c-9.6 35.2-41.6 57.6-76.8 60.8h-28.8c-9.6 0-19.2 3.2-25.6 12.8-6.4 6.4-9.6 16-6.4 25.6l9.6 35.2c6.4 35.2-9.6 70.4-41.6 86.4l-25.6 12.8c-9.6 3.2-16 12.8-16 22.4-3.2 9.6 0 19.2 6.4 25.6l16 25.6c19.2 28.8 19.2 67.2 0 96l-19.2 25.6c-6.4 6.4-6.4 16-6.4 25.6 3.2 9.6 6.4 16 16 22.4l25.6 16c32 16 48 51.2 41.6 86.4l-6.4 28.8c-3.2 9.6 0 19.2 6.4 25.6 6.4 9.6 16 12.8 25.6 12.8l28.8 3.2c35.2 0 64 25.6 73.6 60.8l6.4 28.8c3.2 12.8 16 25.6 32 25.6 3.2 0 9.6 0 12.8-3.2l28.8-12.8c9.6-3.2 19.2-6.4 32-6.4 25.6 0 48 9.6 64 28.8l19.2 22.4c6.4 9.6 16 12.8 25.6 12.8s19.2-3.2 25.6-9.6l19.2-22.4c16-16 38.4-28.8 60.8-28.8 12.8 0 22.4 3.2 32 6.4l28.8 12.8c3.2 3.2 9.6 3.2 12.8 3.2 16 0 28.8-9.6 32-22.4l9.6-28.8c9.6-35.2 41.6-57.6 76.8-60.8h28.8c9.6 0 19.2-3.2 25.6-12.8 6.4-6.4 9.6-16 6.4-25.6l-6.4-35.2c-6.4-35.2 9.6-70.4 41.6-86.4l25.6-12.8c9.6-3.2 16-12.8 16-22.4s0-19.2-6.4-25.6l-16-25.6c-19.2-28.8-19.2-67.2 0-96l19.2-25.6c6.4-6.4 9.6-16 6.4-25.6zM614.4 627.2c-32 0-76.8-19.2-102.4-38.4-25.6 19.2-70.4 38.4-105.6 38.4-38.4 0-73.6-22.4-102.4-51.2s-41.6-64-41.6-102.4 16-73.6 41.6-102.4l163.2-163.2c9.6-9.6 32-22.4 44.8-22.4s35.2 16 44.8 22.4l163.2 163.2c28.8 28.8 41.6 64 41.6 102.4s-16 73.6-41.6 102.4c-28.8 28.8-64 51.2-105.6 51.2zM668.8 409.6l-156.8-156.8-156.8 156.8c-19.2 19.2-28.8 41.6-28.8 67.2s9.6 48 28.8 67.2c19.2 19.2 41.6 28.8 67.2 28.8s41.6-9.6 57.6-28.8l16-12.8c9.6-9.6 25.6-9.6 35.2 0l16 16c19.2 19.2 32 28.8 57.6 28.8s48-9.6 67.2-28.8c19.2-19.2 28.8-41.6 28.8-67.2-3.2-32-16-54.4-32-70.4z" />
<glyph unicode="&#xe907;" glyph-name="low_risk_developement" d="M1017.6 470.4c-41.6 230.4-236.8 406.4-473.6 419.2v32c0 19.2-12.8 32-28.8 32s-28.8-12.8-28.8-28.8v-32c-240-16-438.4-192-480-422.4-6.4-12.8-6.4-22.4-6.4-28.8 0-16 12.8-28.8 28.8-28.8 12.8 0 32 6.4 35.2 28.8 0 3.2 0 3.2 0 6.4 12.8 9.6 51.2 25.6 115.2 25.6 73.6 0 115.2-22.4 121.6-32 0-16 12.8-28.8 28.8-28.8s32 12.8 32 28.8c9.6 9.6 54.4 25.6 121.6 32v0c0 0 0 0 0 0s0 0 3.2 0c0 0 3.2 0 3.2 0 3.2 0 3.2 0 6.4 0 6.4 0 12.8 0 16 0 0 0 3.2 0 3.2 0 3.2 0 6.4 0 12.8 0 3.2 0 9.6 0 12.8-3.2-3.2 0-3.2 0 0 0 0 0 0 0 0 0s0 0 0 0c3.2 0 3.2 0 6.4 0 64-3.2 102.4-19.2 112-28.8 0-16 12.8-28.8 28.8-28.8 19.2 0 32 12.8 32 28.8 6.4 9.6 48 32 121.6 32 64 0 102.4-16 115.2-25.6 0-3.2 0-3.2 0-6.4 3.2-19.2 22.4-28.8 35.2-28.8 16 0 28.8 12.8 28.8 28.8 3.2 6.4 3.2 16-3.2 28.8zM307.2 508.8c-38.4 16-86.4 22.4-124.8 22.4-35.2 0-70.4-3.2-99.2-12.8 44.8 147.2 166.4 259.2 316.8 297.6-57.6-80-83.2-208-92.8-307.2zM515.2 531.2c-48 0-102.4-6.4-147.2-22.4 22.4 201.6 92.8 323.2 147.2 323.2 57.6 0 121.6-128 144-320-41.6 12.8-92.8 19.2-144 19.2zM844.8 531.2c-41.6 0-89.6-6.4-124.8-22.4-9.6 99.2-35.2 227.2-89.6 310.4 147.2-38.4 268.8-150.4 316.8-297.6-32 6.4-67.2 9.6-102.4 9.6zM3.2-38.4c9.6-19.2 16-25.6 38.4-25.6 9.6 0 28.8 12.8 35.2 19.2 35.2 28.8 262.4 188.8 284.8 204.8 12.8 9.6 19.2 3.2 32-9.6l201.6-211.2c12.8-9.6 28.8-9.6 41.6 0l332.8 297.6-3.2-64c0-12.8 3.2-25.6 16-28.8l9.6-3.2c16 0 32 12.8 38.4 28.8v144c0 16-12.8 28.8-28.8 28.8h-134.4c-16 0-28.8-12.8-28.8-28.8v-12.8c0-12.8 9.6-25.6 22.4-28.8l60.8 3.2-288-246.4c-9.6-9.6-22.4-9.6-35.2 0l-198.4 214.4c-9.6 9.6-28.8 9.6-38.4 0l-352-252.8c-6.4-6.4-12.8-19.2-6.4-28.8z" />
<glyph unicode="&#xe908;" glyph-name="no_chargesfor_recruitment" d="M988.8 550.4h-70.4v160c0 19.2-16 35.2-35.2 35.2h-83.2v169.6c0 19.2-16 35.2-35.2 35.2h-627.2c-76.8 0-137.6-60.8-137.6-137.6v-755.2c0-19.2 16-35.2 35.2-35.2h92.8c-16 19.2-28.8 38.4-41.6 57.6h-25.6v614.4c19.2-12.8 44.8-19.2 67.2-16h726.4v-128h-102.4c-19.2 0-35.2-16-35.2-35.2v-265.6c0-19.2 16-35.2 35.2-35.2h102.4v-134.4h-368c-16-19.2-32-38.4-48-57.6h444.8c19.2 0 35.2 16 35.2 35.2v163.2h70.4c19.2 0 35.2 16 35.2 35.2v259.2c0 19.2-16 35.2-35.2 35.2zM739.2 732.8h-611.2c-38.4 0-67.2 35.2-67.2 80s32 76.8 70.4 76.8h608v-156.8zM966.4 278.4h-192v211.2h192v-211.2z" />
<glyph unicode="&#xe909;" glyph-name="no_extre_taxes" d="M240 448c-16 0-28.8-12.8-28.8-28.8s12.8-28.8 28.8-28.8 28.8 12.8 28.8 28.8-12.8 28.8-28.8 28.8zM480 806.4c-16 0-28.8-12.8-28.8-28.8v-60.8c0-16 12.8-28.8 28.8-28.8s28.8 12.8 28.8 28.8v60.8c0 16-12.8 28.8-28.8 28.8zM1020.8 454.4c-3.2 16-19.2 25.6-35.2 22.4s-25.6-19.2-22.4-35.2c0-6.4 3.2-16 3.2-22.4 0-54.4-35.2-89.6-64-89.6-3.2 0-3.2 0-6.4 0 3.2 19.2 6.4 38.4 6.4 60.8 0 73.6-25.6 147.2-76.8 208-41.6 51.2-99.2 92.8-166.4 118.4 3.2 9.6 3.2 22.4 3.2 32-3.2 99.2-83.2 179.2-182.4 179.2s-179.2-80-179.2-179.2c0-12.8 0-22.4 3.2-32-16-6.4-28.8-12.8-41.6-22.4l-22.4 12.8c-57.6 28.8-124.8 16-172.8-28.8-9.6-9.6-9.6-28.8 0-38.4l80-96c-19.2-28.8-35.2-60.8-44.8-96h-12.8c-48 0-89.6-41.6-89.6-89.6v-60.8c0-51.2 41.6-89.6 89.6-89.6 9.6 0 25.6 0 35.2 0 19.2-41.6 48-76.8 83.2-105.6 0-38.4 0-105.6 0-105.6 3.2-16 16-28.8 32-28.8h121.6c16 0 28.8 12.8 28.8 28.8v16c0 9.6 0 16 0 25.6 25.6-6.4 57.6-9.6 89.6-9.6s64 3.2 89.6 9.6v-41.6c0-16 12.8-28.8 28.8-28.8h121.6c16 0 28.8 12.8 28.8 28.8 0 0 0 60.8 0 115.2 44.8 32 80 70.4 105.6 112 9.6 16 16 28.8 22.4 44.8 41.6-9.6 83.2 9.6 112 44.8 22.4 28.8 35.2 64 35.2 102.4 0 12.8 0 25.6-3.2 38.4zM480 873.6c70.4 0 128-57.6 128-128s-57.6-128-128-128-128 57.6-128 128 57.6 128 128 128zM844.8 320v0c-19.2-70.4-67.2-128-131.2-172.8-9.6-6.4-12.8-16-12.8-25.6 0-35.2 0-76.8 0-102.4h-64v57.6c0 22.4-25.6 38.4-44.8 25.6-25.6-12.8-67.2-19.2-108.8-19.2s-86.4 6.4-108.8 19.2c-19.2 9.6-44.8-3.2-44.8-25.6 0-16 0-35.2 0-57.6h-64c0 28.8 0 70.4 0 92.8 0 9.6-3.2 19.2-12.8 22.4-38.4 28.8-70.4 67.2-89.6 112-3.2 9.6-16 16-25.6 19.2-6.4 0-51.2 0-60.8 0-16 0-28.8 12.8-28.8 28.8v64c0 16 12.8 28.8 28.8 28.8h41.6c12.8 0 25.6 9.6 28.8 22.4 9.6 41.6 25.6 83.2 57.6 118.4 9.6 9.6 9.6 25.6 0 38.4l-80 96c25.6 12.8 57.6 12.8 83.2 0l35.2-19.2c9.6-3.2 19.2-3.2 28.8 0 16 9.6 32 16 51.2 22.4 9.6-19.2 25.6-35.2 41.6-51.2-3.2 0-9.6-3.2-12.8-3.2-16-6.4-22.4-22.4-16-38.4s22.4-22.4 38.4-16c32 12.8 70.4 19.2 108.8 19.2s76.8-6.4 112-19.2c3.2 0 6.4-3.2 9.6-3.2 12.8 0 22.4 6.4 28.8 19.2 6.4 16-3.2 32-16 38.4-6.4 3.2-9.6 3.2-16 6.4 16 12.8 28.8 28.8 41.6 51.2 124.8-54.4 211.2-163.2 211.2-278.4-3.2-25.6-3.2-48-9.6-70.4z" />
<glyph unicode="&#xe90a;" glyph-name="no_hiring_fees" d="M512 960c-281.6 0-512-230.4-512-512s230.4-512 512-512 512 230.4 512 512-230.4 512-512 512zM512 899.2c249.6 0 451.2-201.6 451.2-451.2 0-57.6-9.6-115.2-32-166.4l-508.8 252.8c0 3.2 0 6.4-3.2 6.4-6.4 12.8-6.4 25.6-6.4 38.4 0 54.4 44.8 99.2 99.2 99.2s99.2-44.8 99.2-99.2c0-19.2 16-32 32-32s32 16 32 32c0 80-57.6 150.4-134.4 166.4v54.4c0 19.2-16 32-32 32s-32-16-32-32v-51.2c-76.8-16-134.4-83.2-134.4-166.4 0-3.2 0-6.4 0-9.6l-217.6 108.8c76.8 131.2 224 217.6 387.2 217.6zM512-3.2c-249.6 0-451.2 201.6-451.2 451.2 0 60.8 12.8 121.6 35.2 176l496-246.4c0-3.2 3.2-3.2 3.2-6.4 9.6-16 16-35.2 16-54.4 0-54.4-44.8-99.2-99.2-99.2s-99.2 44.8-99.2 99.2c0 19.2-16 32-32 32s-32-16-32-32c0-80 57.6-150.4 134.4-166.4v-54.4c0-19.2 16-32 32-32s32 16 32 32v51.2c76.8 16 134.4 83.2 134.4 166.4 0 6.4 0 12.8 0 19.2l224-115.2c-80-131.2-227.2-220.8-393.6-220.8z" />
<glyph unicode="&#xe90b;" glyph-name="no_recruiting_and_retention_headache" d="M745.6 681.6c-57.6 57.6-150.4 57.6-208 0s-57.6-150.4 0-208c57.6-57.6 150.4-57.6 208 0s57.6 150.4 0 208zM704 515.2c-35.2-35.2-89.6-35.2-121.6 0s-35.2 89.6 0 121.6c32 35.2 86.4 35.2 121.6 3.2 32-35.2 32-89.6 0-124.8zM1024 931.2c0 16-12.8 28.8-28.8 28.8-262.4 0-512-124.8-668.8-336-92.8 44.8-198.4 44.8-281.6 0-16-9.6-19.2-32-6.4-44.8l172.8-172.8c-12.8-32-22.4-67.2-28.8-99.2-3.2-9.6 0-19.2 6.4-25.6l153.6-153.6c6.4-6.4 16-9.6 25.6-6.4 32 6.4 67.2 16 99.2 28.8l172.8-172.8c12.8-12.8 35.2-9.6 44.8 6.4 44.8 83.2 44.8 188.8 0 281.6 214.4 153.6 339.2 403.2 339.2 665.6zM633.6 297.6c-12.8-9.6-19.2-25.6-12.8-38.4 38.4-67.2 51.2-140.8 32-208l-153.6 147.2c-9.6 9.6-25.6 9.6-35.2 6.4-32-12.8-57.6-19.2-89.6-25.6l-128 128c6.4 32 12.8 60.8 25.6 92.8 3.2 9.6 9.6 22.4 0 28.8l-153.6 153.6c67.2 22.4 137.6 12.8 204.8-28.8 12.8-6.4 28.8-3.2 38.4 9.6 140.8 204.8 358.4 326.4 601.6 336-9.6-243.2-131.2-460.8-329.6-601.6zM147.2 249.6c-9.6 9.6-28.8 9.6-41.6 0l-99.2-99.2c-9.6-9.6-9.6-28.8 0-41.6 9.6-9.6 28.8-16 41.6-6.4l99.2 99.2c9.6 12.8 9.6 38.4 0 48zM163.2 99.2c-9.6 9.6-28.8 9.6-41.6 0l-99.2-99.2c-9.6-9.6-9.6-28.8 0-41.6 9.6-9.6 32-16 44.8-3.2l99.2 99.2c9.6 9.6 6.4 32-3.2 44.8zM313.6 83.2c-9.6 9.6-28.8 9.6-41.6 0l-99.2-99.2c-9.6-9.6-9.6-28.8 0-41.6s32-9.6 44.8 0l99.2 99.2c12.8 12.8 9.6 28.8-3.2 41.6z" />
<glyph unicode="&#xe90c;" glyph-name="no_risks" d="M896 832l-374.4 124.8c-6.4 3.2-16 3.2-22.4 0l-371.2-124.8c-16-3.2-25.6-19.2-25.6-32v-454.4c0-96 67.2-195.2 201.6-291.2 96-70.4 188.8-112 192-112 3.2-3.2 9.6-3.2 12.8-3.2 6.4 0 9.6 0 12.8 3.2s99.2 44.8 192 112c134.4 96 201.6 195.2 201.6 291.2v454.4c6.4 12.8-3.2 28.8-19.2 32zM851.2 345.6c0-144-233.6-294.4-339.2-345.6-105.6 51.2-339.2 201.6-339.2 345.6l-9.6 435.2 348.8 121.6 348.8-118.4-9.6-438.4zM502.4 800l-252.8-83.2c-12.8-3.2-22.4-19.2-22.4-32v-304c0-70.4 48-137.6 140.8-204.8 64-48 128-76.8 131.2-76.8 3.2-3.2 9.6-3.2 12.8-3.2 6.4 0 9.6 0 12.8 3.2 3.2 0 67.2 28.8 131.2 76.8 92.8 67.2 140.8 137.6 140.8 204.8v304c0 16-9.6 28.8-22.4 32l-252.8 83.2c-6.4 3.2-12.8 3.2-19.2 0zM729.6 668.8v-300.8c0-89.6-144-179.2-217.6-214.4-70.4 35.2-217.6 124.8-217.6 214.4v300.8l217.6 70.4 217.6-70.4z" />
<glyph unicode="&#xe90d;" glyph-name="our_industry_exerience" d="M995.2 745.6h-307.2v16c0 54.4-44.8 128-99.2 128h-147.2c-54.4 0-99.2-73.6-99.2-128v-16h-313.6c-16 0-28.8-12.8-28.8-32v-592c0-48 41.6-89.6 89.6-89.6h844.8c51.2 0 89.6 41.6 89.6 89.6v592c0 19.2-12.8 32-28.8 32zM390.4 764.8c0 25.6 19.2 73.6 41.6 73.6h160c22.4 0 41.6-48 41.6-73.6v-19.2h-243.2v19.2zM972.8 118.4c0-16-12.8-32-32-32h-857.6c-16 0-28.8 16-28.8 35.2v329.6l355.2-3.2v-44.8c0-16 12.8-32 32-32h144c16 0 32 12.8 32 32v44.8h358.4v-329.6zM451.2 412.8v76.8h121.6v-76.8h-121.6zM969.6 505.6h-355.2c-3.2 12.8-16 22.4-28.8 22.4h-144c-12.8 0-25.6-9.6-28.8-22.4h-355.2v192l912-3.2v-188.8z" />
<glyph unicode="&#xe90e;" glyph-name="proven_and_trusted_IT" d="M787.2 268.8l-153.6 76.8c-3.2 3.2-6.4 6.4-6.4 12.8v48l6.4 9.6c22.4 28.8 38.4 60.8 51.2 96 28.8 19.2 44.8 51.2 44.8 83.2v67.2c0 19.2-6.4 38.4-16 54.4v38.4c3.2 48-12.8 96-44.8 134.4-44.8 48-108.8 70.4-195.2 70.4s-153.6-22.4-195.2-70.4c-32-38.4-48-83.2-44.8-134.4v-38.4c-9.6-16-16-35.2-16-54.4v-70.4c0-25.6 9.6-51.2 28.8-70.4 12.8-41.6 32-80 57.6-118.4v-44.8c0-6.4-3.2-9.6-6.4-12.8l-153.6-83.2c-60.8-32-96-96-96-163.2v-3.2c0-44.8 35.2-80 80-80h358.4c-3.2 6.4-6.4 12.8-9.6 19.2-9.6 16-19.2 32-28.8 48h-320c-6.4 0-12.8 6.4-12.8 12.8v3.2c0 44.8 22.4 83.2 60.8 105.6l153.6 83.2c25.6 12.8 41.6 41.6 41.6 70.4v57.6c0 6.4-3.2 16-6.4 19.2v0c-25.6 32-44.8 70.4-54.4 112-3.2 6.4-6.4 12.8-12.8 19.2-9.6 6.4-12.8 16-12.8 25.6v70.4c0 9.6 3.2 16 9.6 22.4s9.6 12.8 9.6 22.4v51.2c0 0 0 3.2 0 3.2-3.2 32 6.4 60.8 28.8 83.2 28.8 32 76.8 48 144 48s115.2-16 144-48c19.2-22.4 28.8-54.4 28.8-86.4 0 0 0-3.2 0-3.2v-51.2c0-9.6 3.2-16 9.6-22.4s9.6-12.8 9.6-22.4v-67.2c0-12.8-6.4-25.6-19.2-28.8-9.6-3.2-16-9.6-19.2-19.2-9.6-32-25.6-64-44.8-89.6-3.2-6.4-6.4-9.6-9.6-16-6.4-6.4-6.4-12.8-6.4-22.4v-57.6c0-32 16-57.6 44.8-70.4l137.6-67.2c3.2 16 19.2 32 35.2 48z" />
<glyph unicode="&#xe90f;" glyph-name="reduces_management_risks" d="M1017.6 476.8c-41.6 230.4-236.8 406.4-473.6 419.2v32c0 19.2-12.8 32-28.8 32s-28.8-12.8-28.8-28.8v-32c-240-16-438.4-192-480-422.4-6.4-12.8-6.4-22.4-6.4-28.8 0-16 12.8-28.8 28.8-28.8 12.8 0 32 6.4 35.2 28.8 0 3.2 0 3.2 0 6.4 12.8 9.6 51.2 25.6 115.2 25.6 73.6 0 115.2-22.4 121.6-32 0-16 12.8-28.8 28.8-28.8s32 12.8 32 28.8c9.6 9.6 54.4 25.6 121.6 32v-422.4c0-67.2 54.4-121.6 121.6-121.6s121.6 54.4 121.6 121.6v28.8c0 16-12.8 28.8-28.8 28.8s-28.8-12.8-28.8-28.8v-28.8c0-32-25.6-60.8-60.8-60.8s-64 25.6-64 60.8v419.2c67.2-3.2 108.8-19.2 118.4-28.8 0 0 0 0 0 0 0-16 12.8-28.8 28.8-28.8 19.2 0 32 12.8 32 28.8 6.4 9.6 48 32 121.6 32 64 0 102.4-16 115.2-25.6 0-3.2 0-3.2 0-6.4 3.2-19.2 22.4-28.8 35.2-28.8 16 0 28.8 12.8 28.8 28.8 0 6.4 0 16-6.4 28.8zM307.2 515.2c-38.4 16-86.4 22.4-124.8 22.4-35.2 0-70.4-3.2-99.2-12.8 44.8 147.2 166.4 259.2 316.8 297.6-57.6-80-83.2-208-92.8-307.2zM515.2 537.6c-48 0-102.4-6.4-147.2-22.4 22.4 201.6 92.8 323.2 147.2 323.2 57.6 0 121.6-128 144-320-41.6 12.8-92.8 19.2-144 19.2zM844.8 537.6c-41.6 0-89.6-6.4-124.8-22.4-9.6 99.2-35.2 227.2-89.6 310.4 147.2-38.4 268.8-150.4 316.8-297.6-32 6.4-67.2 9.6-102.4 9.6z" />
<glyph unicode="&#xe910;" glyph-name="unlimited_access_to_resources" d="M512 827.59c-96 0-172.8-76.8-172.8-172.8 0-35.2 12.8-70.4 32-99.2-16-9.6-28.8-19.2-44.8-32-6.4 3.2-9.6 6.4-16 9.6 12.8 19.2 19.2 41.6 19.2 67.2 0 70.4-57.6 128-131.2 128-70.4 0-131.2-57.6-131.2-128 0-25.6 6.4-48 19.2-67.2-48-28.8-86.4-83.2-86.4-156.8v-128c0-9.6 9.6-16 16-22.4 86.4-60.8 153.6-70.4 230.4-57.6v0c220.8-176 435.2-86.4 534.4 0 76.8-12.8 156.8 6.4 230.4 57.6 12.8 6.4 12.8 12.8 12.8 25.6v124.8c0 73.6-35.2 124.8-86.4 156.8 12.8 19.2 19.2 41.6 19.2 67.2 0 70.4-57.6 128-131.2 128-70.4 0-131.2-57.6-131.2-128 0-25.6 6.4-48 19.2-67.2-6.4-3.2-9.6-6.4-16-9.6-12.8 12.8-28.8 22.4-44.8 28.8 19.2 28.8 32 60.8 32 99.2 0 99.2-76.8 176-172.8 176v0zM512 776.39c70.4 0 124.8-54.4 124.8-124.8-3.2-70.4-57.6-121.6-124.8-124.8-70.4 0-124.8 54.4-124.8 124.8s54.4 124.8 124.8 124.8zM198.4 683.59c44.8 0 83.2-35.2 83.2-80s-35.2-80-83.2-80c-44.8 3.2-80 32-83.2 80 0 44.8 38.4 80 83.2 80zM825.6 683.59c44.8 0 80-35.2 80-80s-35.2-80-80-80c-48 0-80 35.2-80 80s35.2 80 80 80zM403.2 517.19c28.8-25.6 67.2-38.4 108.8-38.4s80 16 108.8 38.4c83.2-25.6 108.8-144 108.8-236.8v-83.2c-147.2-99.2-288-102.4-438.4 0v83.2c3.2 92.8 35.2 211.2 112 236.8v0zM275.2 494.79c6.4-3.2 9.6-6.4 16-9.6-28.8-38.4-48-144-48-201.6v-60.8c-64-12.8-131.2 0-195.2 44.8l6.4 112c0 60.8 28.8 96 70.4 115.2 22.4-16 48-25.6 76.8-25.6 25.6 0 51.2 9.6 73.6 25.6zM752 494.79c22.4-16 48-25.6 76.8-25.6s54.4 9.6 76.8 25.6c41.6-19.2 70.4-57.6 70.4-118.4v-112c-64-44.8-128-57.6-188.8-44.8v60.8c0 57.6-19.2 163.2-48 201.6 0 6.4 6.4 9.6 12.8 12.8z" />
<glyph unicode="&#xe911;" glyph-name="up_to_60_cost_saving" d="M976 329.6c-25.6 25.6-57.6 32-89.6 25.6 28.8 57.6 44.8 118.4 44.8 185.6 0 230.4-188.8 416-416 416s-419.2-185.6-419.2-412.8c0-89.6 28.8-172.8 76.8-240-41.6-6.4-76.8-25.6-105.6-57.6-28.8-35.2-48-76.8-48-121.6v-96c0-16 12.8-28.8 25.6-28.8l380.8-54.4c22.4-3.2 48-6.4 70.4-6.4 83.2 0 163.2 19.2 236.8 57.6 25.6 12.8 48 28.8 70.4 44.8 48 35.2 92.8 76.8 137.6 118.4l35.2 35.2c19.2 19.2 28.8 44.8 28.8 70.4 0 19.2-9.6 44.8-28.8 64zM156.8 544c0 195.2 160 355.2 355.2 355.2s355.2-160 355.2-355.2c0-179.2-131.2-326.4-304-352h-3.2l38.4 16c0 0 0 0 3.2 0 51.2 28.8 70.4 89.6 48 144-3.2 6.4-9.6 16-12.8 22.4 9.6 19.2 12.8 38.4 12.8 60.8 0 67.2-48 121.6-108.8 134.4v153.6c28.8-12.8 48-38.4 48-73.6 0-16 12.8-32 32-32 16 0 32 12.8 32 32 0 67.2-48 121.6-108.8 134.4v32c0 16-12.8 32-32 32-16 0-32-12.8-32-32v-28.8c-60.8-12.8-108.8-70.4-108.8-134.4s48-121.6 108.8-134.4v-121.6l-25.6-12.8c-12.8 12.8-22.4 32-22.4 54.4 0 16-12.8 32-32 32-16 0-32-12.8-32-32 0-28.8 9.6-57.6 25.6-80l-102.4-48h-48c-54.4 57.6-86.4 140.8-86.4 233.6zM588.8 435.2c0-9.6 0-19.2-3.2-25.6 0 0 0 0-3.2 0-12.8 3.2-28.8 6.4-41.6 3.2v92.8c28.8-12.8 48-38.4 48-70.4zM480 723.2v-144c-28.8 12.8-48 38.4-48 73.6s22.4 57.6 48 70.4zM931.2 233.6l-35.2-35.2c-41.6-38.4-86.4-76.8-131.2-112-19.2-16-41.6-28.8-60.8-38.4-83.2-44.8-176-60.8-272-48l-352 48v70.4c0 32 9.6 60.8 32 83.2 22.4 25.6 51.2 38.4 86.4 38.4 0 0 0 0 0 0h105.6c0 0 0 0 0 0 3.2 0 9.6 0 12.8 3.2l211.2 99.2c0 0 0 0 3.2 0 12.8 6.4 25.6 9.6 38.4 3.2 12.8-3.2 22.4-12.8 28.8-25.6 9.6-22.4 3.2-51.2-19.2-64l-169.6-73.6c-12.8-6.4-19.2-19.2-19.2-35.2 3.2-12.8 16-25.6 28.8-25.6h201.6c64 0 124.8 25.6 169.6 70.4l89.6 86.4c16 12.8 38.4 12.8 51.2 0 6.4-6.4 9.6-16 9.6-25.6 3.2-3.2 0-12.8-9.6-19.2z" />
<glyph unicode="&#xe912;" glyph-name="custom_software_developement" d="M1003.886 822.857h-983.771c-10.971 0-20.114-9.143-20.114-20.114v-709.486c0-10.971 9.143-20.114 20.114-20.114h983.771c10.971 0 20.114 9.143 20.114 20.114v709.486c0 10.971-9.143 20.114-20.114 20.114zM983.771 192h-78.629c-10.971 0-20.114-9.143-20.114-20.114s9.143-20.114 20.114-20.114h78.629v-40.229h-943.543v473.6h78.629c10.971 0 20.114 9.143 20.114 20.114s-9.143 20.114-20.114 20.114h-78.629v40.229h945.371l-1.829-473.6zM983.771 704h-943.543v78.629h945.371l-1.829-78.629zM945.371 762.514h-40.229c-10.971 0-20.114-9.143-20.114-20.114s9.143-20.114 20.114-20.114h40.229c10.971 0 20.114 9.143 20.114 20.114s-9.143 20.114-20.114 20.114zM224.914 389.486l144.457 144.457c7.314 7.314 7.314 20.114 0 27.429s-20.114 7.314-27.429 0l-159.086-159.086c-7.314-7.314-7.314-20.114 0-27.429l157.257-157.257c3.657-3.657 9.143-5.486 14.629-5.486s10.971 1.829 14.629 5.486c7.314 7.314 7.314 20.114 0 27.429l-144.457 144.457zM841.143 402.286l-157.257 157.257c-7.314 7.314-20.114 7.314-27.429 0s-7.314-20.114 0-27.429l144.457-144.457-144.457-144.457c-7.314-7.314-7.314-20.114 0-27.429 3.657-3.657 9.143-5.486 14.629-5.486s10.971 1.829 14.629 5.486l155.429 159.086c7.314 7.314 7.314 20.114 0 27.429zM599.771 563.2c-9.143 5.486-21.943 1.829-25.6-9.143l-157.257-314.514c-5.486-9.143-1.829-21.943 9.143-25.6 3.657-1.829 5.486-1.829 9.143-1.829 7.314 0 14.629 3.657 18.286 10.971l157.257 314.514c1.829 9.143-1.829 21.943-10.971 25.6z" />
<glyph unicode="&#xe913;" glyph-name="dedicated_team_for_developement" d="M810.057 704c58.514 0 106.057 47.543 106.057 106.057s-47.543 106.057-106.057 106.057c-58.514 0-106.057-47.543-106.057-106.057s47.543-106.057 106.057-106.057zM810.057 874.057c34.743 0 64-29.257 64-64s-29.257-64-64-64c-34.743 0-64 29.257-64 64s29.257 64 64 64zM996.571 349.257l-27.429 219.429c-7.314 53.029-53.029 93.257-106.057 93.257h-106.057c-10.971 0-23.771-1.829-34.743-5.486s-16.457-16.457-12.8-27.429c3.657-10.971 16.457-16.457 27.429-12.8 7.314 1.829 14.629 3.657 21.943 3.657h106.057c32.914 0 60.343-23.771 64-56.686l27.429-219.429c0-5.486-1.829-12.8-5.486-16.457-5.486-5.486-10.971-7.314-18.286-7.314h-16.457c-10.971 0-20.114-9.143-21.943-20.114l-20.114-279.771h-131.657l-14.629 215.771c0 10.971-10.971 20.114-21.943 20.114s-20.114-10.971-20.114-21.943l16.457-234.057c0-10.971 10.971-20.114 21.943-20.114h171.886c10.971 0 20.114 9.143 21.943 20.114l20.114 279.771c16.457 1.829 32.914 9.143 43.886 21.943 10.971 10.971 16.457 29.257 14.629 47.543zM316.343 250.514c-12.8 1.829-21.943-7.314-21.943-20.114l-14.629-210.286h-131.657l-20.114 279.771c0 10.971-10.971 20.114-21.943 20.114h-14.629c-5.486 0-12.8 1.829-16.457 7.314s-5.486 10.971-5.486 16.457l27.429 219.429c3.657 31.086 31.086 54.857 64 54.857h106.057c5.486 0 9.143 0 16.457-1.829 10.971-3.657 23.771 3.657 25.6 14.629 3.657 10.971-3.657 23.771-14.629 25.6-9.143 1.829-18.286 3.657-27.429 3.657h-106.057c-53.029 0-98.743-40.229-106.057-93.257l-27.429-219.429c-1.829-18.286 3.657-36.571 14.629-51.2 10.971-12.8 27.429-20.114 43.886-21.943l20.114-279.771c0-10.971 10.971-20.114 21.943-20.114h170.057c10.971 0 20.114 9.143 21.943 20.114l16.457 234.057c0 10.971-7.314 21.943-20.114 21.943zM213.943 704c58.514 0 106.057 47.543 106.057 106.057s-47.543 106.057-106.057 106.057c-58.514 1.829-107.886-47.543-107.886-106.057s49.371-106.057 107.886-106.057zM213.943 874.057c34.743 0 64-29.257 64-64s-29.257-64-64-64c-34.743 0-64 29.257-64 64 0 36.571 27.429 64 64 64zM700.343 352.914l-27.429 248.686c-7.314 58.514-53.029 104.229-109.714 104.229h-109.714c-54.857 0-102.4-43.886-107.886-104.229l-27.429-248.686c-1.829-20.114 3.657-42.057 18.286-56.686 10.971-12.8 27.429-20.114 43.886-21.943l21.943-318.171c0-10.971 10.971-20.114 21.943-20.114h170.057c10.971 0 20.114 9.143 21.943 20.114l23.771 318.171c16.457 1.829 32.914 9.143 43.886 21.943 12.8 14.629 18.286 34.743 16.457 56.686zM650.971 323.657c-1.829-1.829-7.314-7.314-16.457-7.314h-16.457c-10.971 0-20.114-9.143-21.943-20.114l-23.771-318.171h-131.657l-23.771 318.171c0 10.971-10.971 20.114-21.943 20.114h-16.457c-7.314 0-12.8 5.486-16.457 7.314-5.486 5.486-7.314 14.629-7.314 23.771l27.429 248.686c3.657 38.4 32.914 65.829 65.829 65.829h109.714c32.914 0 62.171-27.429 65.829-65.829l34.743-248.686c0-9.143-1.829-16.457-7.314-23.771zM508.343 746.057c58.514 0 106.057 47.543 106.057 106.057s-47.543 107.886-106.057 107.886c-58.514 0-106.057-47.543-106.057-106.057s47.543-107.886 106.057-107.886zM508.343 917.943c34.743 0 64-29.257 64-64s-29.257-64-64-64-64 29.257-64 64c0 34.743 29.257 64 64 64z" />
<glyph unicode="&#xe914;" glyph-name="individual_hire" d="M619.886 422.4c14.629-5.486 31.086 1.829 36.571 14.629l38.4 65.829c7.314 12.8 3.657 29.257-7.314 38.4l-31.086 25.6c0 3.657 0 5.486 0 9.143s0 5.486 0 9.143l31.086 25.6c10.971 9.143 14.629 25.6 7.314 40.229l-38.4 67.657c-7.314 12.8-23.771 18.286-38.4 12.8l-36.571-14.629c-5.486 3.657-10.971 5.486-16.457 9.143l-5.486 40.229c-1.829 14.629-14.629 25.6-31.086 25.6h-76.8c-16.457 0-29.257-12.8-31.086-25.6l-5.486-38.4c-5.486-3.657-10.971-5.486-16.457-9.143l-38.4 14.629c-14.629 5.486-29.257-1.829-36.571-14.629l-36.571-69.486c-7.314-12.8-3.657-29.257 7.314-38.4l31.086-23.771c0-3.657 0-5.486 0-9.143s0-5.486 0-9.143l-32.914-27.429c-10.971-9.143-14.629-25.6-7.314-38.4 0 0 0 0 0 0l38.4-67.657c7.314-12.8 23.771-18.286 38.4-12.8l36.571 14.629c5.486-3.657 10.971-5.486 16.457-9.143l5.486-40.229c1.829-14.629 16.457-25.6 31.086-25.6h76.8c14.629 0 27.429 10.971 31.086 25.6l5.486 38.4c5.486 1.829 10.971 5.486 16.457 9.143l38.4-12.8zM565.029 479.086c-9.143-7.314-18.286-12.8-27.429-16.457-7.314-3.657-12.8-9.143-12.8-16.457l-5.486-40.229h-56.686l-5.486 40.229c-1.829 7.314-5.486 12.8-12.8 16.457-10.971 5.486-20.114 10.971-27.429 16.457-5.486 5.486-14.629 5.486-21.943 3.657l-38.4-16.457-27.429 49.371 32.914 25.6c5.486 5.486 9.143 12.8 7.314 20.114 0 5.486-1.829 9.143-1.829 14.629s0 9.143 1.829 14.629c1.829 7.314-1.829 16.457-7.314 20.114l-32.914 27.429 27.429 49.371 38.4-14.629c7.314-3.657 14.629-1.829 20.114 3.657 9.143 7.314 18.286 12.8 27.429 16.457 7.314 3.657 12.8 9.143 12.8 16.457l5.486 40.229h56.686l5.486-40.229c1.829-7.314 5.486-12.8 12.8-16.457 10.971-5.486 20.114-9.143 27.429-16.457 5.486-3.657 14.629-5.486 20.114-3.657l38.4 14.629 27.429-49.371-29.257-25.6c-5.486-5.486-9.143-12.8-7.314-20.114 0-5.486 1.829-10.971 1.829-16.457s0-10.971-1.829-16.457c0-7.314 1.829-14.629 7.314-20.114l32.914-25.6-27.429-47.543-38.4 14.629c-7.314 3.657-14.629 3.657-21.943-1.829zM960 341.943c0 31.086-62.171 140.8-93.257 195.657 3.657 14.629 7.314 51.2 7.314 102.4 0 91.429-120.686 320-404.114 320-279.771 0-405.943-212.114-405.943-362.057 0-106.057 62.171-215.771 113.371-303.543 29.257-51.2 56.686-98.743 56.686-122.514 0-54.857-87.771-160.914-122.514-199.314-7.314-9.143-7.314-21.943 1.829-29.257 3.657-3.657 9.143-5.486 14.629-5.486s10.971 1.829 16.457 7.314c12.8 14.629 133.486 146.286 133.486 226.743 0 34.743-27.429 84.114-62.171 144.457-49.371 82.286-107.886 186.514-107.886 281.6 0 104.229 87.771 320 362.057 320 270.629 0 362.057-217.6 362.057-276.114 0-65.829-9.143-102.4-9.143-102.4-1.829-5.486 0-10.971 1.829-16.457 42.057-73.143 89.6-164.571 91.429-181.029-1.829-5.486-23.771-16.457-47.543-21.943-5.486-1.829-10.971-5.486-14.629-10.971s-3.657-10.971-1.829-16.457l16.457-51.2-9.143-10.971c-5.486-5.486-7.314-12.8-5.486-20.114-3.657-1.829-5.486-3.657-9.143-5.486-5.486-5.486-12.8-16.457-12.8-32.914s7.314-27.429 12.8-34.743c5.486-7.314 9.143-12.8 9.143-29.257s-5.486-29.257-87.771-42.057c-56.686-9.143-188.343-56.686-188.343-106.057 0-10.971 9.143-23.771 20.114-23.771s20.114 7.314 20.114 20.114c7.314 14.629 82.286 56.686 153.6 67.657 53.029 9.143 124.343 20.114 124.343 84.114 0 27.429-9.143 42.057-16.457 53.029-3.657 7.314-5.486 7.314-7.314 12.8 10.971-1.829 21.943 7.314 23.771 18.286 0 3.657 0 9.143-1.829 12.8l18.286 18.286c5.486 5.486 7.314 14.629 5.486 21.943l-14.629 42.057c21.943 7.314 56.686 23.771 56.686 54.857zM490.057 661.943c-47.543 0-85.943-38.4-85.943-85.943s38.4-85.943 85.943-85.943 85.943 38.4 85.943 85.943c0 47.543-38.4 85.943-85.943 85.943zM490.057 533.943c-23.771 0-42.057 18.286-42.057 42.057s18.286 42.057 42.057 42.057 42.057-18.286 42.057-42.057c1.829-23.771-18.286-42.057-42.057-42.057z" />
<glyph unicode="&#xe915;" glyph-name="managed_services_support" d="M512 711.314c-144.457 0-263.314-117.029-263.314-263.314s118.857-263.314 263.314-263.314 263.314 118.857 263.314 263.314-118.857 263.314-263.314 263.314zM512 228.571c-120.686 0-219.429 98.743-219.429 219.429s98.743 219.429 219.429 219.429 219.429-98.743 219.429-219.429c0-120.686-98.743-219.429-219.429-219.429zM561.371 603.429l-27.429-34.743c9.143-7.314 12.8-16.457 12.8-27.429 0-20.114-16.457-36.571-36.571-36.571s-36.571 16.457-36.571 36.571c0 10.971 5.486 21.943 12.8 27.429l-27.429 34.743c-18.286-14.629-29.257-38.4-29.257-62.171 0-36.571 23.771-67.657 58.514-76.8v-171.886h43.886v171.886c32.914 9.143 58.514 40.229 58.514 76.8 1.829 23.771-9.143 45.714-29.257 62.171zM1024 343.771v208.457h-113.371c-9.143 36.571-23.771 73.143-43.886 106.057l80.457 80.457-146.286 146.286-80.457-80.457c-32.914 20.114-69.486 34.743-106.057 43.886v111.543h-206.629v-113.371c-36.571-9.143-73.143-23.771-106.057-43.886l-80.457 80.457-146.286-146.286 80.457-80.457c-20.114-32.914-34.743-69.486-43.886-106.057h-111.543v-206.629h113.371c9.143-36.571 23.771-73.143 43.886-106.057l-80.457-80.457 146.286-146.286 80.457 80.457c32.914-20.114 69.486-34.743 106.057-43.886v-111.543h206.629v113.371c36.571 9.143 73.143 23.771 106.057 43.886l80.457-80.457 146.286 146.286-80.457 80.457c20.114 32.914 34.743 69.486 43.886 106.057h111.543zM872.229 371.2c-9.143-43.886-27.429-85.943-51.2-124.343l-9.143-14.629 73.143-73.143-84.114-84.114-73.143 73.143-14.629-9.143c-38.4-25.6-80.457-42.057-124.343-51.2l-16.457-3.657v-104.229h-118.857v104.229l-16.457 3.657c-43.886 9.143-85.943 27.429-124.343 51.2l-14.629 9.143-73.143-73.143-84.114 84.114 73.143 73.143-10.971 14.629c-25.6 38.4-42.057 80.457-51.2 124.343l-3.657 16.457h-104.229v118.857h104.229l3.657 16.457c9.143 43.886 27.429 85.943 51.2 124.343l9.143 14.629-73.143 73.143 84.114 84.114 73.143-73.143 14.629 9.143c38.4 25.6 80.457 42.057 124.343 51.2l16.457 3.657v106.057h118.857v-104.229l16.457-3.657c43.886-9.143 85.943-27.429 124.343-51.2l14.629-9.143 73.143 73.143 84.114-84.114-73.143-73.143 9.143-14.629c25.6-38.4 42.057-80.457 51.2-124.343l3.657-16.457h104.229v-118.857h-104.229l-1.829-18.286z" />
</font>
</defs>
</svg>
